<?xml version="1.0" standalone="no"?>
<svg viewBox="0 0 200 200" xmlns="http://www.w3.org/2000/svg">
  <path fill="#2C54E5" d="M39.5,-70.3C48.5,-63.3,51.3,-47.2,50.5,-34C49.7,-20.8,45.4,-10.4,47.2,1.1C49.1,12.5,57,25,56.7,36.4C56.4,47.7,47.9,57.9,37.1,64.7C26.2,71.5,13.1,74.8,3.2,69.3C-6.7,63.7,-13.5,49.3,-21.5,40.9C-29.5,32.5,-38.8,30.1,-51.5,24.3C-64.3,18.5,-80.6,9.2,-80.7,-0.1C-80.8,-9.4,-64.7,-18.7,-56,-31.6C-47.3,-44.5,-46,-60.9,-37.8,-68.4C-29.7,-75.9,-14.9,-74.6,0.2,-74.9C15.3,-75.3,30.5,-77.3,39.5,-70.3Z" transform="translate(100 100)" />
</svg>
